<?xml version="1.0" encoding="UTF-8"?><svg id="Capa_2" xmlns="http://www.w3.org/2000/svg" viewBox="0 0 286.82 303.42"><defs><style>.cls-1{fill:#fff;}</style></defs><g id="Capa_1-2"><g><path class="cls-1" d="M261.16,51.1c-24.25-29.37-60.36-38.11-89.11-42.43L116.99,.39c-1.77-.26-3.53-.39-5.28-.39-3.96,0-7.81,.64-11.5,1.92-13.97,1.24-27.43,6.42-40.07,15.43-.72,.51-1.4,1.09-2.03,1.71C33.95,43.22,17.08,71.04,7.98,101.75,.71,126.25-1.6,152.51,1.08,179.79c4.54,46.03,21.79,79.19,22.52,80.58,.29,.55,.61,1.08,.96,1.58,4.63,6.76,9.89,12.8,15.63,17.96,7.76,6.98,16.27,12.25,25.3,15.68,4.15,2.4,8.79,3.96,13.56,4.54,17.65,2.18,35.01,3.28,51.56,3.28,46.23,0,71.39-8.46,74.73-9.66,1.35-.47,2.7-1.05,4.02-1.72,25.47-12.8,45.06-33.27,58.23-60.84,8.34-17.48,14.01-37.93,16.85-60.8,6.69-54.03-.71-91.94-23.28-119.3Z"/><g><path d="M104.39,94.73c-1.66-.63-3.36-.98-5.11-1.02-4.54-.12-9.06,1.88-13.08,5.74-9.4,9.05-15.43,27.27-15.73,47.54-.38,25.55,8.57,47.23,20.89,53.05,2.02,.95,4.13,1.48,6.3,1.54h.35c4.42,0,8.82-1.99,12.74-5.75,9.4-9.05,15.43-27.27,15.73-47.54,.39-26.37-9.16-48.6-22.09-53.55Z"/><path d="M248.83,61.27c-20.8-25.2-53.23-32.89-79.16-36.79l-55.06-8.27c-3.83-.57-7.57,0-10.86,1.49-12.07,.62-23.7,5.08-34.34,12.67C-28.14,127.93,37.76,252.91,37.76,252.91c3.95,5.77,8.35,10.81,13.13,15.11,6.69,6.02,13.93,10.4,21.63,13.11,2.45,1.63,5.32,2.75,8.47,3.13,18.68,2.3,35.24,3.16,49.63,3.16,44.35,0,68.09-8.27,69.38-8.74,.75-.26,1.47-.57,2.17-.92,22.24-11.17,39.4-29.15,51-53.45,7.61-15.94,12.79-34.75,15.42-55.89,6.11-49.37-.16-83.4-19.75-107.15Zm-80.48,97.38c-3.87,37.52-17.56,69.83-35.74,89.75-8.16,8.93-17.22,15.37-26.71,18.67-4.76,1.67-9.62,2.54-14.54,2.54-1.53,0-3.05-.09-4.58-.26-8.07-.89-15.57-4.1-22.33-9.22-7.04-5.34-13.27-12.76-18.48-21.8-.57-1-1.13-2-1.66-3.02-.57-1.05-1.11-2.12-1.64-3.22-11.26-23.09-16.5-54.72-12.98-88.78,4.14-40.05,19.45-74.16,39.5-93.6,.53-.52,1.06-1.01,1.6-1.51,.54-.51,1.09-.99,1.64-1.47,6.26-5.44,12.92-9.47,19.8-11.85,4.74-1.64,9.57-2.5,14.46-2.5,1.53,0,3.05,.07,4.58,.25,5.73,.63,11.18,2.43,16.27,5.26,8.83,4.9,16.61,12.88,22.99,23.2,14.54,23.46,21.83,58.95,17.83,97.58Z"/></g></g></g></svg>