<?xml version="1.0" encoding="UTF-8"?><svg id="Capa_2" xmlns="http://www.w3.org/2000/svg" viewBox="0 0 686.4 354.81"><defs><style>.cls-1{fill:#fff;}</style></defs><g id="Capa_1-2"><g><g><path class="cls-1" d="M641.63,70.97c-23.41-28.36-59.91-37.03-89.08-41.41l-61.98-9.31c-4.31-.64-8.52,0-12.22,1.68-13.59,.71-26.66,5.72-38.65,14.27l-118.97,46.08c-2.6,1.02-4.42,3.36-4.75,6.13-.15,1.24-.29,2.35-.44,3.32-.82-.94-1.75-2.04-2.79-3.28-1.44-1.7-3.54-2.68-5.77-2.68-1.05,0-2.07,.21-3.02,.63L24.54,208c-2.75,1.2-4.54,3.91-4.54,6.92v112.34c0,4.16,3.38,7.54,7.54,7.54h235.16c2,0,3.9-.79,5.32-2.22l19.94-19.92v14.59c0,4.16,3.38,7.54,7.54,7.54h57.3c2.01,0,3.9-.79,5.33-2.22l45.94-45.93c4.45,6.48,9.39,12.16,14.78,17,7.53,6.77,15.68,11.71,24.34,14.75,2.76,1.85,5.99,3.1,9.53,3.52,21.02,2.59,39.66,3.57,55.86,3.57,49.92,0,76.64-9.31,78.09-9.84,.84-.29,1.65-.64,2.44-1.04,25.03-12.57,44.34-32.81,57.4-60.16,8.56-17.94,14.4-39.11,17.36-62.9,6.88-55.56-.19-93.87-22.24-120.6Z"/><path class="cls-1" d="M487.3,20c1.08,0,2.18,.08,3.28,.24l61.98,9.31c29.17,4.38,65.67,13.05,89.08,41.41,22.05,26.73,29.12,65.04,22.24,120.6-2.96,23.79-8.8,44.96-17.36,62.9-13.06,27.35-32.37,47.59-57.4,60.16-.79,.4-1.6,.75-2.44,1.04-1.46,.53-28.17,9.84-78.09,9.84-16.2,0-34.84-.98-55.86-3.57-3.53-.42-6.76-1.68-9.53-3.52-8.66-3.05-16.81-7.98-24.34-14.75-5.39-4.85-10.33-10.52-14.78-17l-45.94,45.93c-1.43,1.43-3.32,2.22-5.33,2.22h-57.3c-4.16,0-7.54-3.38-7.54-7.54v-14.59l-19.94,19.92c-1.42,1.43-3.32,2.22-5.32,2.22H27.54c-4.16,0-7.54-3.38-7.54-7.54v-112.34c0-3.01,1.78-5.72,4.54-6.92L303.96,86.37c.95-.41,1.97-.63,3.02-.63,2.22,0,4.33,.98,5.77,2.68,1.04,1.24,1.97,2.34,2.79,3.28,.15-.97,.29-2.08,.44-3.32,.33-2.76,2.15-5.11,4.75-6.13l118.97-46.08c11.99-8.55,25.07-13.56,38.65-14.27,2.75-1.24,5.79-1.92,8.94-1.92m0-20c-4.59,0-9.07,.74-13.36,2.19-15.2,1.39-29.87,6.84-43.68,16.21l-116.75,45.22c-1.56,.61-3.05,1.35-4.45,2.21-.69-.05-1.38-.08-2.08-.08-3.81,0-7.51,.77-11,2.29L16.56,189.67c-10.06,4.39-16.56,14.3-16.56,25.26v112.34c0,15.19,12.35,27.54,27.54,27.54h235.16c5.99,0,11.69-1.9,16.41-5.42,4.58,3.41,10.26,5.42,16.39,5.42h57.3c7.35,0,14.27-2.87,19.47-8.07l30.61-30.61c.85,.82,1.71,1.62,2.58,2.41,8.88,7.98,18.61,14.02,28.96,17.97,4.87,2.8,10.3,4.62,15.88,5.29,20.03,2.46,39.64,3.71,58.27,3.71,52.27,0,81-9.64,84.78-11,1.58-.56,3.17-1.23,4.73-2.02h0c29.09-14.61,51.46-37.97,66.47-69.42,9.49-19.9,15.93-43.13,19.16-69.05,7.6-61.4-.87-104.54-26.66-135.79-12.61-15.28-29.57-27.24-50.39-35.54-18.87-7.53-38.22-10.97-51.14-12.91L493.55,.47c-2.07-.31-4.17-.47-6.25-.47h0Z"/></g><g><path d="M479.08,108.62c-1.86-.71-3.78-1.1-5.75-1.15-5.11-.14-10.2,2.12-14.72,6.46-10.58,10.19-17.37,30.69-17.71,53.51-.43,28.76,9.64,53.16,23.51,59.71,2.27,1.07,4.65,1.67,7.09,1.73h.39c4.98,0,9.93-2.24,14.34-6.47,10.58-10.18,17.37-30.69,17.71-53.51,.44-29.67-10.31-54.7-24.86-60.28Z"/><path d="M641.63,70.96c-23.41-28.36-59.9-37.02-89.08-41.41l-61.97-9.31c-4.31-.64-8.52,0-12.22,1.68-13.59,.7-26.67,5.72-38.65,14.26l-118.97,46.08c-2.61,1.02-4.42,3.37-4.75,6.13-.15,1.23-.29,2.34-.44,3.32-.82-.95-1.75-2.04-2.79-3.29-1.43-1.7-3.54-2.68-5.77-2.68-1.04,0-2.06,.21-3.02,.63L24.53,208c-2.75,1.2-4.54,3.91-4.54,6.92v112.34c0,4.16,3.39,7.55,7.55,7.55h235.16c2.01,0,3.9-.79,5.33-2.22l19.93-19.92v14.59c0,4.16,3.39,7.55,7.55,7.55h57.3c2.01,0,3.9-.79,5.33-2.22l45.94-45.94c4.45,6.48,9.4,12.16,14.78,17,7.54,6.77,15.69,11.71,24.34,14.76,2.76,1.84,5.99,3.09,9.53,3.52,21.03,2.59,39.66,3.56,55.86,3.56,49.92,0,76.64-9.31,78.09-9.84,.84-.29,1.65-.64,2.44-1.04,25.03-12.57,44.34-32.81,57.4-60.16,8.56-17.94,14.4-39.11,17.36-62.9,6.88-55.56-.19-93.87-22.24-120.6ZM252.33,309.75l-129.44,3.03-73.7,3.68-6.99,.35-1.08,.06-.54-63.95-.18-26.56,57.26-25.4,148.38-62.56v.02l.11-.04,.18,5.38,1.05,33.18-172.54,58.6v15.88l124.66-36.62h0s.1-.03,.1-.03l1.29,34.23-.11,.03-126.09,26.98,.05,17.56,176.49-22.43,1.2,38.6-.11,.02Zm118.52-216.46l-1.11,4.3-33.2,128.86,4.97,79.14c.12,1.94-.17,3.89-.78,5.37-.41,1-.96,1.7-1.55,2.03-.16,.09-.32,.16-.49,.19-.04,.02-.07,.03-.11,.03-.09,.02-.17,.02-.24,.02l-4.5-.12-5.74-.15-15.72-.4c-1.66-.04-3.04-2.67-3.13-6.02l-.16-5.47-.1-3.35-.1-3.34-1.84-60.19-40.5-88.15-2.06-4.49c-.74-1.47-.91-3.74-.41-5.91,.33-1.51,.96-2.81,1.71-3.62,.31-.36,.67-.62,1.02-.79l28.71-13.05c.07-.03,.13-.06,.19-.07,.07-.03,.13-.04,.18-.05,.92-.22,1.76,.34,2.31,1.57l22.25,51.23,.06,.14,18.77-70.42c.55-2.12,1.5-3.69,2.57-4.21l24.85-12.07,1.28-.63c.07-.03,.13-.06,.19-.08,.06-.03,.12-.04,.17-.04,1.04-.26,1.98,.64,2.53,2.45,.6,2.01,.6,4.81,0,7.28Zm180.2,87.27c-4.36,42.23-19.77,78.59-40.24,101.01-9.18,10.05-19.38,17.3-30.05,21.02-5.36,1.87-10.84,2.85-16.37,2.85-1.72,0-3.44-.1-5.15-.28-9.08-1.01-17.52-4.62-25.13-10.39-7.93-6-14.94-14.36-20.8-24.54-.64-1.11-1.27-2.25-1.87-3.4-.63-1.18-1.25-2.39-1.85-3.62-12.67-25.98-18.58-61.58-14.61-99.92,4.66-45.08,21.89-83.47,44.46-105.35,.6-.58,1.19-1.14,1.8-1.7,.61-.57,1.23-1.11,1.85-1.66,7.04-6.12,14.53-10.66,22.28-13.34,5.33-1.84,10.78-2.81,16.27-2.81,1.72,0,3.43,.09,5.15,.28,6.44,.71,12.57,2.74,18.3,5.93,9.95,5.51,18.7,14.5,25.89,26.1,16.36,26.4,24.57,66.36,20.07,109.82Z"/></g></g></g></svg>