<?xml version="1.0" encoding="UTF-8"?><svg id="Capa_1" xmlns="http://www.w3.org/2000/svg" viewBox="0 0 1080 1080"><path d="M891.76,542.52l-8.67-1.53c.7-.55,1.4-1.13,2.11-1.7,71.5-58.17,70.06-110.99,69.55-117.71,0-.06,0-.11,0-.17-.01-.22-.03-.44-.06-.66l-.47-3.66c-3.88-29.7-20.07-56.6-44.42-73.81-37.72-26.65-79.12-40.17-123.05-40.17h-.02c-34.08,.01-69.42,8.1-105.03,24.05-29.34,13.14-52.51,28.78-66.78,39.59-61.5,46.58-108.95,71.69-112.72,73.66L120.52,606.58c-3.42,1.49-5.57,4.93-5.4,8.66l1.26,28.26c.1,2.27,1.06,4.39,2.63,5.96,.01,.01,.02,.02,.03,.04,.34,.53,.78,.99,1.31,1.37l19.7,13.95c.29,.2,.59,.37,.9,.5h0s1.25,23.06,1.25,23.06l.9,80.85c.03,1.93,.85,3.83,2.29,5.28,1.33,1.34,3.07,2.18,4.86,2.35,.16,.01,.31,.02,.47,.03l231.22-6.16,22.97-.92c.48,0,.95-.11,1.38-.3l46.09-17.7,.15,5.06c.22,7.54,3.31,13.51,7.07,13.65l32.49,1.08c.22,.01,.43,0,.65-.05,.57,.11,1.17,.06,1.73-.13l79.17-27.27c10.2,11.24,22.25,18.47,35.54,21.1h0c.26,.14,.53,.27,.81,.38l.18,.09c1.12,.57,3.45,1.75,6.57,1.8,10.62,.16,20.58,.32,29.97,.32,22.82,0,42.24-.91,59.33-4.78,26.5-6,46.25-18.84,64.04-41.64,2.97-3.81,5.75-7.62,8.33-11.45,9.01,18.75,22.32,30.71,38.04,34.18h.01c.34,.19,.71,.35,1.08,.5l.28,.13c.82,.36,2.2,.98,4,1.3,12.61,2.29,24.52,3.43,35.67,3.43,36.19-.01,64.39-11.97,82.62-35.36,13.8-17.71,21.89-38.02,24.05-60.35,5.7-58.85-22.73-102.53-72.41-111.28Zm-271.42-168.6c14.79-11.2,40.77-28.73,73.67-42.26,.04-.02,.08-.03,.12-.05,.25,5.57,.46,11.3,.62,16.72,.05,1.72,.09,3.41,.13,5.05,.04,1.74,.07,3.44,.1,5.06,.1,7.05,.08,12.79-.15,15.76-36.26,13.61-75.76,36.2-118.03,71.21-14.68,12.16-31.39,21.54-48.72,29.65v-.03c.01-.14,.02-.28,.02-.42,.05-1.83,.08-4.01,.08-6.63h0c-.01-1.93-.03-4.07-.08-6.48-.12-6.26-.4-14.29-.87-24.61,0-.07-.01-.14-.02-.21,20.35-11.97,53.78-32.96,93.13-62.76Zm-114.27,74.61s4.37-2.25,12.24-6.71c.04-.02,.08-.05,.12-.07,.46,11.05,.74,22.4,.71,29.93h-.01s.01,.02,0,.03t0,.02s.01,.01,0,.02c0,3.14-.07,5.6-.21,7.1-.01,.14-.02,.28-.04,.4-3.84,1.7-7.71,3.35-11.57,4.97l-21.21,8.82v-.02c.2-6.25,.02-16.87-.87-35.23,0-.06-.01-.12-.02-.18l20.86-9.08Zm-29.8,12.97l.12-.05c.67,14.86,1.01,30.6,.54,35.41l-41.88,17.42v-.02c.2-5.85,0-15.72-.88-32.66-.03-.57-.17-1.11-.39-1.6l42.49-18.5Zm-83.42,36.33l.12-.05c.7,13.99,1.07,29.7,.53,33.58-.05,.09-.1,.17-.15,.26h0s-215.97,89.84-215.97,89.84v-.02c.19-5.42,.03-14.38-.75-29.47l216.22-94.14Zm-259.76,142.06h-.01l-7.71,3.21v-.02l-.08-1.75-1.18-26.49,43.58-18.98,.12-.05c.57,12.65,.84,25.85,.36,29.35-.03,.06-.07,.12-.09,.18l-34.99,14.55Zm261.8,116.8l-146.35,3.42-83.32,4.16-7.9,.39-1.23,.07-.6-72.29-1.7-30.03,66.23-28.71,167.77-70.73v.02l.12-.05,.19,6.08,1.2,37.52-195.08,66.25v17.94h0s140.94-41.39,140.94-41.39h0s.12-.04,.12-.04l1.45,38.71-.12,.03-142.55,30.5,.05,19.86,199.55-25.36,1.35,43.63-.12,.03Zm7.83-228.96v-.02c.21-5.75,.03-15.53-.87-32.48-.02-.43-.1-.84-.24-1.22l23.54-10.25,.12-.05c.71,14.18,1.09,30.26,.56,34.4l-23.11,9.62Zm126.17-15.77l-1.25,4.86-37.54,145.69,5.62,89.47c.13,2.2-.19,4.41-.88,6.07-.47,1.13-1.09,1.93-1.76,2.3-.18,.1-.36,.18-.55,.21-.04,.02-.08,.03-.12,.03-.1,.02-.19,.02-.28,.02l-5.08-.13-6.49-.16-17.77-.45c-1.88-.05-3.43-3.03-3.54-6.82l-.18-6.18-.11-3.78-.11-3.77-2.09-68.04-45.79-99.67-2.33-5.08c-.84-1.66-1.02-4.23-.46-6.68,.38-1.71,1.08-3.17,1.93-4.09,.36-.41,.76-.71,1.16-.89l32.46-14.76c.07-.03,.14-.06,.21-.08,.07-.03,.14-.04,.2-.05,1.03-.25,1.98,.39,2.61,1.78l25.15,57.91,.07,.16,21.22-79.62c.62-2.39,1.7-4.17,2.9-4.75l28.1-13.66,1.45-.71c.07-.04,.14-.07,.21-.09,.06-.03,.13-.04,.19-.05,1.18-.29,2.24,.73,2.85,2.77,.68,2.28,.68,5.45,0,8.24Zm182.36,103.93c-.08,1.49-.18,2.99-.3,4.49-.1,1.5-.23,3-.38,4.5-.24,2.59-.53,5.2-.87,7.81-6.79,52.68-30.49,95.83-59.22,114.15h-.02c-4.85,3.1-9.84,5.49-14.91,7.09-1.85,.59-3.71,1.08-5.57,1.45-.8,.16-1.59,.31-2.39,.42-2.4,.36-4.8,.55-7.22,.55-2.12,0-4.24-.14-6.37-.43-3.5-.48-6.9-1.34-10.18-2.56-7.15-2.66-13.76-7.02-19.71-12.81-.91-.89-1.81-1.82-2.7-2.77-.84-.92-1.67-1.87-2.48-2.85h-.01c-20.78-24.88-31.74-68.79-26.8-117.34,.21-2.08,.45-4.17,.72-6.27,.13-1.03,.27-2.05,.42-3.06,.56-3.93,1.21-7.8,1.96-11.6,7.02-36.12,22.05-66.68,40.81-86.17h0c1.2-1.26,2.42-2.47,3.66-3.62,1.2-1.14,2.42-2.23,3.65-3.27,6.52-5.51,13.39-9.71,20.44-12.42,.98-.37,1.96-.72,2.94-1.03,.12-.04,.24-.08,.36-.11,.29-.09,.58-.18,.87-.27,.41-.12,.82-.24,1.23-.34,.67-.19,1.33-.35,2-.5,.37-.08,.74-.16,1.12-.24,1.91-.4,3.83-.68,5.75-.84,1.37-.13,2.74-.19,4.11-.19h.01c2.13,0,4.24,.14,6.37,.43,1.17,.16,2.33,.36,3.48,.61,.02,0,.03,0,.05,0,.01,0,.02,0,.03,.01,10.02,2.15,19.11,7.51,27,15.41,22.07,22.09,34.8,64.09,32.15,111.76Zm5.63-249.01s-.08,.02-.12,.03c-1.02,.29-2.05,.59-3.08,.91-1.4,.42-2.8,.85-4.22,1.3-.61,.19-1.21,.39-1.82,.59-1.21,.4-2.43,.81-3.66,1.22h0c.1-3.85,.08-9.35-.11-17.31,0-.21,0-.43-.01-.65-.04-1.48-.07-2.95-.11-4.4-.05-1.73-.11-3.41-.16-5.03-.25-7.7-.52-13.71-.53-13.79-.02-.54-.14-1.05-.34-1.52,4.36-1.64,8.84-3.18,13.41-4.64,.04-.01,.08-.03,.12-.04,.17,4.83,.33,9.73,.45,14.45,.04,1.52,.08,3.02,.11,4.49,.04,1.53,.07,3.04,.09,4.5,.16,8.57,.17,15.83-.02,19.89Zm38.47-8.09s-.08,.01-.12,.02c-.28,.04-.57,.08-.86,.12-.29,.04-.58,.08-.87,.12-.91,.13-1.82,.26-2.74,.4-1.5,.23-3,.47-4.51,.72-.15,.03-.29,.05-.43,.07-.02,0-.04,.01-.06,.01-.22,.03-.43,.07-.65,.11-.38,.07-.76,.13-1.14,.21-.76,.13-1.52,.27-2.28,.41-1.53,.29-3.07,.59-4.61,.91-3.66,.75-7.37,1.6-11.11,2.54,.1-3.99,.08-9.68-.08-17.92-.01-.48-.02-.97-.03-1.47-.02-1.01-.04-2.02-.06-3.03-.04-1.52-.07-3.03-.11-4.5-.21-7.61-.45-14.19-.54-16.61,5.86-1.65,11.87-3.1,18.02-4.33,1.39-.28,2.78-.55,4.19-.8,.7-.13,1.4-.26,2.11-.38,.7-.12,1.41-.24,2.12-.36,.98-.16,1.97-.32,2.96-.47,.25,7.16,.45,14.51,.59,21.37,.04,1.53,.06,3.03,.09,4.5,.03,1.54,.05,3.04,.07,4.5,.07,5.32,.09,10.08,.05,13.86Zm9.02-1.02c.03-3.46,0-7.82-.09-13.33-.01-1.42-.04-2.91-.07-4.49v-.14c-.03-1.46-.06-2.92-.09-4.36-.2-9.68-.49-18.62-.61-22.03v-.02c7.59-.84,15.34-1.29,23.21-1.29,37.55,0,77.89,10.27,117.88,38.52,16.58,11.73,28.96,28.22,35.7,47.04h0c1.6,4.48,2.89,9.08,3.83,13.78h0c.46,2.25,.84,4.52,1.14,6.8l.48,3.67s-.01-.02-.04-.05c-.02-.03-.06-.07-.11-.12-3.31-3.57-61.76-65.01-159.12-65.02-7.16,0-14.54,.33-22.12,1.04Zm124.82,289.79c-4.77,37.06-21.36,67.46-41.52,80.6-2.64,1.73-5.35,3.15-8.09,4.25-.67,.27-1.35,.53-2.04,.77-.68,.24-1.37,.45-2.05,.64-.87,.25-1.75,.47-2.63,.65-.58,.12-1.15,.23-1.73,.31-1.74,.26-3.48,.4-5.23,.4-1.51,0-3.01-.1-4.52-.3-3.51-.48-6.88-1.5-10.07-3.03-11.26-5.34-20.41-16.82-26.46-32.13,10.27-17.69,16.86-36.3,20.7-57.94,3.02-17.01,4.19-32.76,3.51-47.18-.08-1.76-.19-3.5-.32-5.22-.14-1.69-.3-3.36-.49-5-.75-6.64-1.93-12.97-3.54-18.99,7.19-8.7,15.35-15.01,23.88-18.21,.29-.11,.59-.22,.89-.32,.17-.06,.34-.12,.51-.17,.42-.14,.84-.28,1.27-.4,.98-.29,1.97-.53,2.95-.73,.38-.09,.77-.16,1.15-.23,1.98-.36,3.98-.54,5.98-.54,1.5,0,3.01,.1,4.52,.31,.83,.11,1.65,.26,2.47,.43,.03,.01,.06,.01,.09,.02h.01s.03,.01,.04,.01c3.35,.73,6.53,1.96,9.57,3.66,1.38,.76,2.73,1.62,4.04,2.57,1.23,.9,2.44,1.88,3.6,2.93,1.82,1.64,3.54,3.45,5.19,5.44,15.25,18.42,22.97,51.37,18.32,87.4Z"/><path d="M841.91,598.78c-1.04-.05-2.08-.01-3.11,.12-4.4,.52-8.65,2.59-12.45,6.08-8.02,7.35-13.15,20.09-13.72,34.08-.72,17.54,5.92,32.92,15.9,39.46,3.05,2,6.41,3.18,9.96,3.34,.29,.02,.58,.03,.87,.03,5.17,0,10.24-2.14,14.69-6.23,8.02-7.35,13.15-20.08,13.72-34.07,.94-22.9-10.66-42.1-25.86-42.81Z"/><path d="M639.02,560.99c-1.74-.46-3.52-.73-5.34-.82-7.6-.35-15.11,2.66-21.72,8.72-5.4,4.95-9.92,11.61-13.32,19.41h0c-1.73,3.94-3.16,8.15-4.27,12.59h0c-.94,3.7-1.65,7.55-2.13,11.49-.18,1.48-.33,2.98-.44,4.48-.09,1.11-.15,2.22-.2,3.34-.01,.39-.03,.78-.03,1.16-.15,4.87,.07,9.61,.63,14.18v.02c.56,4.62,1.46,9.05,2.66,13.22,5.08,17.78,15.56,30.93,28.42,34.3,1.74,.46,3.52,.73,5.34,.82,.4,.02,.79,.03,1.19,.03,7.2,0,14.27-3.01,20.53-8.75,11.87-10.88,19.48-30.07,20.35-51.32v-.14c.07-1.51,.09-3.01,.08-4.5-.01-1.52-.06-3.02-.15-4.51-1.46-27.18-14.39-49.22-31.6-53.72Z"/></svg>