<?xml version="1.0" encoding="UTF-8"?><svg id="Capa_2" xmlns="http://www.w3.org/2000/svg" viewBox="0 0 889.78 513.8"><defs><style>.cls-1{fill:#fff;}</style></defs><g id="Capa_1-2"><g><path class="cls-1" d="M870.38,285.35c-7.86-12.09-17.87-22.14-29.73-29.89-4-2.61-8.18-4.94-12.53-6.98,51.83-53.55,52.21-100.23,51.49-111.08-.01-.21-.02-.42-.04-.64-.04-.58-.1-1.16-.17-1.73l-.46-3.6c-4.61-35.26-23.82-67.17-52.71-87.6C785.05,14.75,739.77,0,691.63,0h-.02c-36.93,.01-75.01,8.69-113.21,25.8-31.07,13.92-55.59,30.47-70.68,41.9-57.88,43.84-103.35,68.4-109.31,71.56L17.43,305.13C6.48,309.9-.51,321.12,.03,333.04l1.26,28.24c.29,6.6,2.81,12.85,7.15,17.8,1.46,1.87,3.19,3.53,5.15,4.93l.05,.03,.05,.03,12.72,9.01,.7,12.83,.9,80.42v.04s0,.04,0,.04c.11,7.15,2.99,13.92,8.1,19.06,4.62,4.65,10.71,7.56,17.16,8.17l.32,.03,.32,.02h.19s.28,.03,.28,.03l.89,.06,.89-.02,231.22-6.16h.13s.13,0,.13,0l22.75-.91c2.83-.07,5.6-.65,8.24-1.72l24.89-9.56c4.7,7.21,11.82,11.67,20.24,11.99h.04s.04,0,.04,0l32.41,1.08c.3,.01,.6,.02,.89,.02,.16,0,.31,0,.47,0,.21,0,.43,0,.64,0,2.57,0,5.11-.42,7.55-1.25h.04s.04-.03,.04-.03l67.67-23.31c10.24,8.52,21.78,14.4,33.99,17.27,2.65,1.23,7.56,3.12,13.79,3.22l1.98,.03c9.95,.15,19.35,.29,28.31,.29,21.01,0,43.28-.64,63.75-5.27,26.78-6.06,48.35-18.53,67-38.9,9.31,9.67,20.32,16.33,32.43,19.47,1.33,.58,4.36,1.9,8.4,2.63,13.69,2.48,26.88,3.74,39.2,3.74,42.42-.01,76.45-14.9,98.39-43.07,16.17-20.75,25.65-44.54,28.18-70.72,3.24-33.43-3.19-63.61-18.58-87.26Z"/><g><path class="cls-1" d="M847.87,133.19c-15.21-14.48-71.24-61.56-156.49-61.57-6.65,0-13.4,.29-20.11,.85,0-3.06-.03-6.74-.1-11.15-.01-1.34-.04-2.74-.07-4.22l-.09-4.8c-.18-8.73-.43-16.61-.55-20.22,7.05-.72,14.16-1.08,21.15-1.08,41.61,0,80.89,12.84,116.72,38.15,16.19,11.45,28.28,27.39,34.97,46.08,.02,.05,.04,.1,.06,.14,1.56,4.37,2.8,8.83,3.69,13.29,.01,.03,.01,.06,.02,.09,.3,1.46,.56,2.94,.8,4.44Z"/><path class="cls-1" d="M658.25,73.94l-.17,.02c-.91,.13-1.81,.26-2.74,.4-1.5,.23-3.01,.48-4.59,.74-.11,.02-.22,.03-.33,.05-.02,0-.04,.01-.07,.01-.21,.03-.42,.07-.71,.12l-.36,.07c-.28,.05-.56,.09-.76,.14-.73,.12-1.46,.26-2.18,.39l-.14,.02c-1.54,.3-3.09,.6-4.63,.92-2.83,.58-5.73,1.23-8.67,1.94,.05-3.86,0-8.84-.12-15.4l-.2-9.02c-.17-6.1-.36-11.61-.49-15.05,5.38-1.47,10.87-2.77,16.36-3.87,1.38-.28,2.75-.54,4.16-.79,.69-.13,1.38-.26,2.09-.38l2.1-.36c.24-.03,.48-.07,.72-.11,.2,6.24,.38,12.8,.51,19.09,.02,1,.04,1.98,.06,2.95l.03,1.54c.03,1.45,.05,2.87,.06,4.25v.24c.07,4.66,.09,8.72,.07,12.09Z"/><path class="cls-1" d="M619.82,82.24c-.61,.18-1.22,.37-1.83,.55-1.41,.43-2.82,.86-4.24,1.31-.49,.15-.97,.31-1.45,.47l-1.38,.46c.03-3.78-.02-8.58-.16-14.52,0-.24,0-.49-.01-.7l-.11-4.41c-.03-1.02-.07-2.02-.1-3.01l-.06-2.03c-.22-6.54-.47-12.66-.54-13.79h.01c-.01-.06-.01-.12-.01-.18,2.95-1.09,6.06-2.17,9.29-3.23,.16,4.56,.27,8.35,.36,11.78v.24c.04,1.44,.08,2.85,.11,4.25,.04,1.52,.07,3.03,.09,4.49,.15,7.91,.16,14.32,.03,18.32Z"/><path class="cls-1" d="M774.22,278.33c-1.62-1.96-3.26-3.67-4.99-5.23-.27-.24-.55-.49-.82-.73-.56-.49-1.14-.95-1.73-1.41-.29-.23-.59-.45-.89-.67-1.24-.9-2.53-1.72-3.83-2.43-2.9-1.62-5.93-2.78-9.03-3.46-.02,0-.04,0-.05,0-.04,0-.08-.01-.11-.02-.87-.18-1.6-.31-2.29-.4-3.24-.45-6.61-.38-9.88,.22l-.1,.02c-.31,.05-.63,.11-.94,.19-1.04,.21-1.98,.44-2.85,.7-.42,.12-.81,.25-1.2,.38-.21,.06-.34,.11-.48,.16-.31,.1-.58,.2-.84,.3-7.81,2.93-15.53,8.74-22.4,16.83,1.5,5.79,2.62,11.94,3.33,18.28,.19,1.56,.35,3.21,.5,5.05,.14,1.88,.25,3.61,.33,5.3,.68,14.51-.51,30.54-3.54,47.62-3.87,21.78-10.38,40.16-20.45,57.75,6.02,14.81,14.69,25.23,25.09,30.16,3.02,1.45,6.21,2.41,9.49,2.86,3.02,.4,6,.38,9.18-.1,.56-.08,1.09-.18,1.62-.29,.81-.16,1.64-.37,2.49-.61,.73-.21,1.36-.4,1.93-.61,.67-.23,1.32-.48,1.96-.73,2.63-1.06,5.23-2.43,7.74-4.07,20.5-13.36,36.07-43.7,40.63-79.19,4.43-34.29-2.42-67.2-17.87-85.86Zm.44,80.23l-.29,4.04c-.07,.66-.15,1.33-.24,1.99-.09,.66-.19,1.31-.3,1.97l-1.41,6.34c-.07,.27-.15,.54-.23,.8-.07,.27-.15,.53-.24,.79l-1.55,4.35c-.17,.43-.35,.85-.54,1.27-.15,.35-.3,.69-.46,1.03-.32,.68-.65,1.35-.99,2.01-.17,.32-.34,.65-.52,.97-.09,.16-.18,.32-.27,.48-.26,.48-.53,.94-.82,1.4-.1,.16-.19,.31-.29,.46-.09,.15-.18,.3-.29,.45-.18,.29-.37,.57-.56,.84-.16,.25-.34,.5-.52,.75-.1,.15-.21,.3-.32,.44-.14,.2-.29,.39-.44,.58-.2,.27-.41,.54-.63,.8-.27,.34-.54,.66-.83,.98-.28,.32-.56,.64-.85,.95-.16,.18-.34,.36-.51,.54-.16,.17-.33,.33-.49,.49-.26,.25-.52,.5-.78,.74-4.81,4.42-10.36,6.76-16.04,6.76-.34,0-.67-.01-1.01-.03-3.78-.17-7.47-1.41-10.92-3.67-10.94-7.17-17.53-23.34-16.8-41.21,.59-14.51,5.96-27.77,14.37-35.47,4.07-3.75,8.77-6.03,13.56-6.6,1.13-.14,2.29-.18,3.44-.13,16.29,.76,28.75,20.9,27.77,44.89Z"/><path class="cls-1" d="M582.57,222.43c-3.91-3.92-8.06-7.13-12.4-9.61-4.35-2.48-8.89-4.24-13.6-5.25-.04-.01-.07-.02-.11-.03-1.05-.23-2.16-.42-3.3-.58-2.04-.28-4.03-.41-6.1-.41-1.35,0-2.67,.06-3.93,.18-1.86,.16-3.72,.43-5.53,.81l-1.07,.23c-.66,.14-1.28,.29-1.92,.47-.44,.11-.81,.22-1.17,.33l-.88,.27s-.07,.02-.1,.03c-.07,.02-.14,.04-.21,.07-.88,.27-1.81,.6-2.88,1-6.77,2.6-13.45,6.67-19.85,12.08-1.23,1.03-2.43,2.11-3.57,3.19-1.13,1.05-2.3,2.2-3.48,3.43-.04,.04-.07,.09-.11,.13-19.18,19.92-33.49,50.17-40.29,85.16-.73,3.68-1.38,7.55-1.94,11.5-.15,1.01-.29,2.01-.42,3.03-.27,2.08-.51,4.18-.71,6.22-4.71,46.28,5.34,90.6,26.24,115.73,.04,.04,.08,.09,.12,.14,.75,.91,1.57,1.84,2.41,2.77,.94,1,1.81,1.89,2.63,2.69,5.84,5.69,12.23,9.85,19,12.37,3.16,1.17,6.44,1.99,9.76,2.45,4.23,.57,8.58,.55,13.02-.12,.74-.1,1.45-.23,2.3-.4,1.73-.35,3.53-.81,5.35-1.4,4.84-1.52,9.7-3.83,14.44-6.86,.06-.04,.12-.08,.18-.11,29.35-18.81,51.62-61.94,58.15-112.62,.34-2.56,.63-5.16,.87-7.73,.16-1.61,.28-3.06,.37-4.45,.12-1.51,.22-2.99,.3-4.47,2.55-45.95-9.54-88.19-31.57-110.24Zm-4.91,114.3c0,1.41-.03,2.72-.08,3.97v.05c-.9,21.85-8.74,41.56-21,52.79-6.62,6.07-14.19,9.28-21.88,9.28-.44,0-.86-.01-1.29-.03-1.97-.1-3.9-.4-5.75-.89-13.29-3.48-24.45-16.82-29.84-35.68-1.24-4.31-2.15-8.86-2.72-13.53,0-.03-.01-.06-.01-.1-.57-4.69-.78-9.54-.63-14.4,0-.21,0-.49,.02-.77v-.38c.06-1.18,.12-2.32,.21-3.45,.11-1.46,.26-3,.45-4.56,.49-4.02,1.22-7.94,2.16-11.65,0-.03,.01-.06,.02-.08,1.12-4.5,2.58-8.8,4.33-12.8,0-.04,.03-.07,.04-.11,3.58-8.21,8.23-14.97,13.81-20.08,7-6.43,15-9.61,23.16-9.25,1.97,.1,3.91,.4,5.76,.89,17.97,4.7,31.58,27.54,33.08,55.54,.1,1.51,.15,3.07,.16,4.61v.63Z"/><path class="cls-1" d="M597.8,89.68c-38.71,14.71-78.2,38.63-117.39,71.08-12.2,10.11-26.68,19.05-45.37,28,.02-1.23,.03-2.53,.03-3.91-.01-1.93-.03-4.08-.08-6.5-.12-6.23-.39-14.01-.83-23.67,21.05-12.43,53.84-33.17,92.28-62.28,15.26-11.56,39.77-27.91,70.7-40.95,.19,4.55,.36,9.27,.5,13.83,.04,1.6,.08,3.17,.12,4.7v.34c.04,1.56,.07,3.1,.1,4.57v.47c.1,6.62,.08,11.42-.06,14.32Z"/><path class="cls-1" d="M422.03,188.37c0,.08,0,.16,0,.23h0v.03c-.01,2.74-.06,4.76-.15,6.16-3.06,1.35-6.42,2.78-10.44,4.47l-18.38,7.65c.08-6.99-.22-17.25-.88-31.13l19.59-8.53s.07-.03,.11-.05c.04-.02,3.47-1.79,9.58-5.21,.39,10.1,.6,19.76,.58,26.38Z"/><path class="cls-1" d="M379.91,212.38l-37.91,15.77c.07-6.65-.25-16.44-.95-29.76,0-.12-.01-.23-.02-.35l38.38-16.71c.58,13.93,.78,26.04,.5,31.05Z"/><path class="cls-1" d="M328.83,233.62l-19.15,7.97c.07-6.58-.24-16.28-.94-29.48l19.56-8.52c.62,13.35,.83,25.42,.53,30.03Z"/><path class="cls-1" d="M393.05,378.9c-.05,.2-.07,.42-.06,.63l5.62,89.46c.11,1.88-.16,3.82-.73,5.18-.34,.81-.69,1.2-.9,1.33l-29.21-.73c-.43-.15-1.54-1.81-1.63-4.89l-2.49-81.77c-.01-.27-.07-.53-.19-.77l-48.15-104.82c-.62-1.24-.74-3.38-.29-5.35,.29-1.32,.83-2.5,1.48-3.2,.22-.26,.41-.36,.48-.39l32.4-14.74h.02c.08,.07,.24,.24,.4,.61l25.16,57.92,.07,.16c.34,.77,1.14,1.25,1.98,1.18,.85-.06,1.56-.65,1.78-1.47l21.22-79.64c.56-2.15,1.41-3.24,1.84-3.45l28.11-13.66,1.28-.63c.14,.16,.39,.54,.62,1.32,.58,1.93,.57,4.75-.02,7.18l-38.79,150.54Z"/><g><path d="M797,257.44l-4.36-.77c71.05-58.46,69.46-111.99,69-118.28,0-.09-.01-.18-.02-.27-.01-.25-.04-.5-.07-.74l-.47-3.66c-3.95-30.25-20.44-57.65-45.25-75.18-38.07-26.9-79.86-40.54-124.22-40.54-34.37,.01-69.98,8.16-105.85,24.22-29.52,13.23-52.82,28.96-67.17,39.83-61.48,46.56-109.58,71.98-112.38,73.44L24.61,321.64c-4.15,1.81-6.81,6.06-6.6,10.58l1.26,28.26c.12,2.69,1.22,5.23,3.08,7.15,.46,.67,1.04,1.26,1.73,1.76l19.72,13.97s.07,.04,.1,.06l1.19,21.87,.9,80.86c.04,2.47,1.05,4.83,2.87,6.66,1.66,1.68,3.82,2.72,6.16,2.94l.47,.03h.17l231.25-6.16,22.89-.92c.74,0,1.48-.16,2.09-.43l43.46-16.69,.07,2.24c.26,8.85,4.04,15.4,9,15.59l32.46,1.08c.27,.01,.52,0,.76-.03,.78,.09,1.59,0,2.37-.26l77.93-26.84c10.35,11.06,22.27,18.02,35.47,20.69,.23,.11,.44,.21,.66,.3l.09,.04c1.15,.59,3.85,1.96,7.45,2.02l1.96,.03c9.88,.15,19.21,.29,28.04,.29,19.96,0,41.03-.58,59.77-4.83,26.98-6.11,47.08-19.17,65.17-42.36,2.3-2.94,4.47-5.88,6.49-8.76,9.22,17.57,22.17,28.66,37.63,32.16,.35,.18,.69,.32,.93,.41l.28,.13s.09,.05,.1,.05c.9,.4,2.4,1.06,4.38,1.41,12.65,2.3,24.77,3.46,36.03,3.46,37.19,0,65.52-12.17,84.19-36.13,14.04-18.01,22.27-38.67,24.47-61.39,5.81-59.96-23.26-104.49-74.05-113.44Zm-385.24-90.19s.07-.03,.11-.05c.04-.02,3.47-1.79,9.58-5.21,.39,10.1,.6,19.76,.58,26.38,0,.08,0,.16,0,.23h0v.03c-.01,2.74-.06,4.76-.15,6.16-3.06,1.35-6.42,2.78-10.44,4.47l-18.38,7.65c.08-6.99-.22-17.25-.88-31.13l19.59-8.53Zm-32.35,14.08c.58,13.93,.78,26.04,.5,31.05l-37.91,15.77c.07-6.65-.25-16.44-.95-29.76,0-.12-.01-.23-.02-.35l38.38-16.71Zm-83.41,36.33c.61,13.3,.81,25.19,.5,29.42l-212.17,88.24c.06-5.83-.19-14.13-.75-25.18l212.42-92.48ZM37.32,354.89s-.08,.03-.12,.04l-5.07,2.12-1.07-24.04,39.76-17.32c.48,11.6,.62,21.33,.35,25.12l-33.85,14.08Zm116.01,120.11l-90.37,4.51-.59-70.3-1.62-28.64,64.93-28.15,165.21-69.65,1.25,39.23-193.68,65.78c-.81,.27-1.35,1.03-1.35,1.89v17.95c0,.63,.29,1.22,.8,1.6,.5,.38,1.16,.5,1.76,.32l138.6-40.71,1.29,34.46-141.03,30.17c-.93,.2-1.59,1.02-1.58,1.96l.05,19.86c0,.58,.25,1.12,.68,1.5,.43,.38,1,.55,1.57,.48l197.37-25.08,1.22,39.45-144.51,3.37Zm156.35-233.41c.07-6.58-.24-16.28-.94-29.48l19.56-8.52c.62,13.35,.83,25.42,.53,30.03l-19.15,7.97Zm122.16-13.23l-38.79,150.54c-.05,.2-.07,.42-.06,.63l5.62,89.46c.11,1.88-.16,3.82-.73,5.18-.34,.81-.69,1.2-.9,1.33l-29.21-.73c-.43-.15-1.54-1.81-1.63-4.89l-2.49-81.77c-.01-.27-.07-.53-.19-.77l-48.15-104.82c-.62-1.24-.74-3.38-.29-5.35,.29-1.32,.83-2.5,1.48-3.2,.22-.26,.41-.36,.48-.39l32.4-14.74h.02c.08,.07,.24,.24,.4,.61l25.16,57.92,.07,.16c.34,.77,1.14,1.25,1.98,1.18,.85-.06,1.56-.65,1.78-1.47l21.22-79.64c.56-2.15,1.41-3.24,1.84-3.45l28.11-13.66,1.28-.63c.14,.16,.39,.54,.62,1.32,.58,1.93,.57,4.75-.02,7.18Zm3.15-50.01c-.12-6.23-.39-14.01-.83-23.67,21.05-12.43,53.84-33.17,92.28-62.28,15.26-11.56,39.77-27.91,70.7-40.95,.19,4.55,.36,9.27,.5,13.83,.04,1.6,.08,3.17,.12,4.7v.34c.04,1.56,.07,3.1,.1,4.57v.47c.1,6.62,.08,11.42-.06,14.32-38.71,14.71-78.2,38.63-117.39,71.08-12.2,10.11-26.68,19.05-45.37,28,.02-1.23,.03-2.53,.03-3.91-.01-1.93-.03-4.08-.08-6.5Zm179.15,154.32c-.08,1.48-.18,2.96-.3,4.47-.09,1.39-.21,2.84-.37,4.45-.24,2.57-.53,5.17-.87,7.73-6.53,50.68-28.8,93.81-58.15,112.62-.06,.03-.12,.07-.18,.11-4.74,3.03-9.6,5.34-14.44,6.86-1.82,.59-3.62,1.05-5.35,1.4-.85,.17-1.56,.3-2.3,.4-4.44,.67-8.79,.69-13.02,.12-3.32-.46-6.6-1.28-9.76-2.45-6.77-2.52-13.16-6.68-19-12.37-.82-.8-1.69-1.69-2.63-2.69-.84-.93-1.66-1.86-2.41-2.77-.04-.05-.08-.1-.12-.14-20.9-25.13-30.95-69.45-26.24-115.73,.2-2.04,.44-4.14,.71-6.22,.13-1.02,.27-2.02,.42-3.03,.56-3.95,1.21-7.82,1.94-11.5,6.8-34.99,21.11-65.24,40.29-85.16,.04-.04,.07-.09,.11-.13,1.18-1.23,2.35-2.38,3.48-3.43,1.14-1.08,2.34-2.16,3.57-3.19,6.4-5.41,13.08-9.48,19.85-12.08,1.07-.4,2-.73,2.88-1,.07-.03,.14-.05,.21-.07,.03-.01,.06-.02,.1-.03l.88-.27c.36-.11,.73-.22,1.17-.33,.64-.18,1.26-.33,1.92-.47l1.07-.23c1.81-.38,3.67-.65,5.53-.81,1.26-.12,2.58-.18,3.93-.18,2.07,0,4.06,.13,6.1,.41,1.14,.16,2.25,.35,3.3,.58,.04,.01,.07,.02,.11,.03,4.71,1.01,9.25,2.77,13.6,5.25,4.34,2.48,8.49,5.69,12.4,9.61,22.03,22.05,34.12,64.29,31.57,110.24Zm5.68-250.43c-.61,.18-1.22,.37-1.83,.55-1.41,.43-2.82,.86-4.24,1.31-.49,.15-.97,.31-1.45,.47l-1.38,.46c.03-3.78-.02-8.58-.16-14.52,0-.24,0-.49-.01-.7l-.11-4.41c-.03-1.02-.07-2.02-.1-3.01l-.06-2.03c-.22-6.54-.47-12.66-.54-13.79h.01c-.01-.06-.01-.12-.01-.18,2.95-1.09,6.06-2.17,9.29-3.23,.16,4.56,.27,8.35,.36,11.78v.24c.04,1.44,.08,2.85,.11,4.25,.04,1.52,.07,3.03,.09,4.49,.15,7.91,.16,14.32,.03,18.32Zm38.43-8.3l-.17,.02c-.91,.13-1.81,.26-2.74,.4-1.5,.23-3.01,.48-4.59,.74-.11,.02-.22,.03-.33,.05-.02,0-.04,.01-.07,.01-.21,.03-.42,.07-.71,.12l-.36,.07c-.28,.05-.56,.09-.76,.14-.73,.12-1.46,.26-2.18,.39l-.14,.02c-1.54,.3-3.09,.6-4.63,.92-2.83,.58-5.73,1.23-8.67,1.94,.05-3.86,0-8.84-.12-15.4l-.2-9.02c-.17-6.1-.36-11.61-.49-15.05,5.38-1.47,10.87-2.77,16.36-3.87,1.38-.28,2.75-.54,4.16-.79,.69-.13,1.38-.26,2.09-.38l2.1-.36c.24-.03,.48-.07,.72-.11,.2,6.24,.38,12.8,.51,19.09,.02,1,.04,1.98,.06,2.95l.03,1.54c.03,1.45,.05,2.87,.06,4.25v.24c.07,4.66,.09,8.72,.07,12.09Zm13.02-1.47c0-3.06-.03-6.74-.1-11.15-.01-1.34-.04-2.74-.07-4.22l-.09-4.8c-.18-8.73-.43-16.61-.55-20.22,7.05-.72,14.16-1.08,21.15-1.08,41.61,0,80.89,12.84,116.72,38.15,16.19,11.45,28.28,27.39,34.97,46.08,.02,.05,.04,.1,.06,.14,1.56,4.37,2.8,8.83,3.69,13.29,.01,.03,.01,.06,.02,.09,.3,1.46,.56,2.94,.8,4.44-15.21-14.48-71.24-61.56-156.49-61.57-6.65,0-13.4,.29-20.11,.85Zm120.82,291.72c-4.56,35.49-20.13,65.83-40.63,79.19-2.51,1.64-5.11,3.01-7.74,4.07-.64,.25-1.29,.5-1.96,.73-.57,.21-1.2,.4-1.93,.61-.85,.24-1.68,.45-2.49,.61-.53,.11-1.06,.21-1.62,.29-3.18,.48-6.16,.5-9.18,.1-3.28-.45-6.47-1.41-9.49-2.86-10.4-4.93-19.07-15.35-25.09-30.16,10.07-17.59,16.58-35.97,20.45-57.75,3.03-17.08,4.22-33.11,3.54-47.62-.08-1.69-.19-3.42-.33-5.3-.15-1.84-.31-3.49-.5-5.05-.71-6.34-1.83-12.49-3.33-18.28,6.87-8.09,14.59-13.9,22.4-16.83,.26-.1,.53-.2,.84-.3,.14-.05,.27-.1,.48-.16,.39-.13,.78-.26,1.2-.38,.87-.26,1.81-.49,2.85-.7,.31-.08,.63-.14,.94-.19l.1-.02c3.27-.6,6.64-.67,9.88-.22,.69,.09,1.42,.22,2.29,.4,.03,.01,.07,.02,.11,.02,.01,0,.03,0,.05,0,3.1,.68,6.13,1.84,9.03,3.46,1.3,.71,2.59,1.53,3.83,2.43,.3,.22,.6,.44,.89,.67,.59,.46,1.17,.92,1.73,1.41,.27,.24,.55,.49,.82,.73,1.73,1.56,3.37,3.27,4.99,5.23,15.45,18.66,22.3,51.57,17.87,85.86Z"/><path class="cls-1" d="M297.84,471.63l-144.51,3.37-90.37,4.51-.59-70.3-1.62-28.64,64.93-28.15,165.21-69.65,1.25,39.23-193.68,65.78c-.81,.27-1.35,1.03-1.35,1.89v17.95c0,.63,.29,1.22,.8,1.6,.5,.38,1.16,.5,1.76,.32l138.6-40.71,1.29,34.46-141.03,30.17c-.93,.2-1.59,1.02-1.58,1.96l.05,19.86c0,.58,.25,1.12,.68,1.5,.43,.38,1,.55,1.57,.48l197.37-25.08,1.22,39.45Z"/></g><path class="cls-1" d="M296.5,247.08l-212.17,88.24c.06-5.83-.19-14.13-.75-25.18l212.42-92.48c.61,13.3,.81,25.19,.5,29.42Z"/><path class="cls-1" d="M71.17,340.81l-33.85,14.08s-.08,.03-.12,.04l-5.07,2.12-1.07-24.04,39.76-17.32c.48,11.6,.62,21.33,.35,25.12Z"/><g><path d="M774.37,362.6c.14-1.33,.23-2.68,.29-4.04l-.29,4.04Zm-.54,3.96l-1.41,6.34c.58-2.05,1.05-4.17,1.41-6.34Zm-1.88,7.93l-1.55,4.35c.57-1.41,1.09-2.86,1.55-4.35Z"/><path d="M774.66,358.56l-.29,4.04c-.07,.66-.15,1.33-.24,1.99-.09,.66-.19,1.31-.3,1.97l-1.41,6.34c-.07,.27-.15,.54-.23,.8-.07,.27-.15,.53-.24,.79l-1.55,4.35c-.17,.43-.35,.85-.54,1.27-.15,.35-.3,.69-.46,1.03-.32,.68-.65,1.35-.99,2.01-.17,.32-.34,.65-.52,.97-.09,.16-.18,.32-.27,.48-.26,.48-.53,.94-.82,1.4-.1,.16-.19,.31-.29,.46-.09,.15-.18,.3-.29,.45-.18,.29-.37,.57-.56,.84-.16,.25-.34,.5-.52,.75-.1,.15-.21,.3-.32,.44-.14,.2-.29,.39-.44,.58-.2,.27-.41,.54-.63,.8-.27,.34-.54,.66-.83,.98-.28,.32-.56,.64-.85,.95-.16,.18-.34,.36-.51,.54-.16,.17-.33,.33-.49,.49-.26,.25-.52,.5-.78,.74-4.81,4.42-10.36,6.76-16.04,6.76-.34,0-.67-.01-1.01-.03-3.78-.17-7.47-1.41-10.92-3.67-10.94-7.17-17.53-23.34-16.8-41.21,.59-14.51,5.96-27.77,14.37-35.47,4.07-3.75,8.77-6.03,13.56-6.6,1.13-.14,2.29-.18,3.44-.13,16.29,.76,28.75,20.9,27.77,44.89Z"/></g><path d="M577.66,336.1v.63c0,1.41-.03,2.72-.08,3.97v.05c-.9,21.85-8.74,41.56-21,52.79-6.62,6.07-14.19,9.28-21.88,9.28-.44,0-.86-.01-1.29-.03-1.97-.1-3.9-.4-5.75-.89-13.29-3.48-24.45-16.82-29.84-35.68-1.24-4.31-2.15-8.86-2.72-13.53,0-.03-.01-.06-.01-.1-.57-4.69-.78-9.54-.63-14.4,0-.21,0-.49,.02-.77v-.38c.06-1.18,.12-2.32,.21-3.45,.11-1.46,.26-3,.45-4.56,.49-4.02,1.22-7.94,2.16-11.65,0-.03,.01-.06,.02-.08,1.12-4.5,2.58-8.8,4.33-12.8,0-.04,.03-.07,.04-.11,3.58-8.21,8.23-14.97,13.81-20.08,7-6.43,15-9.61,23.16-9.25,1.97,.1,3.91,.4,5.76,.89,17.97,4.7,31.58,27.54,33.08,55.54,.1,1.51,.15,3.07,.16,4.61Z"/></g></g></g></svg>